HIERARCHY
ROOT Hips
{
	OFFSET 0.00 0.00 0.00
	CHANNELS 6 Xposition Yposition Zposition Yrotation Xrotation Zrotation
	JOINT LHipJoint
	{
		OFFSET	0.0000	0.0000	0.0000
		CHANNELS 3 Yrotation Xrotation Zrotation
		JOINT LeftUpLeg
		{
			OFFSET	1.0138	-0.0809	-0.0827
			CHANNELS 3 Yrotation Xrotation Zrotation
			JOINT LeftLeg
			{
				OFFSET	0.4110	-3.9095	0.3245
				CHANNELS 3 Yrotation Xrotation Zrotation
				JOINT LeftFoot
				{
					OFFSET	0.3810	-4.0555	-0.1470
					CHANNELS 3 Yrotation Xrotation Zrotation
					JOINT LeftToeBase
					{
						OFFSET	0.1396	-0.4462	1.3079
						CHANNELS 3 Yrotation Xrotation Zrotation
						End Site
						{
							OFFSET 0.0161 -0.0248 0.1809
						}
					}
				}
			}
		}
	}
	JOINT LowerBack
	{
		OFFSET	0.0000	0.7977	-0.3873
		CHANNELS 3 Yrotation Xrotation Zrotation
		JOINT Spine
		{
			OFFSET	0.0000	1.4131	0.1715
			CHANNELS 3 Yrotation Xrotation Zrotation
			JOINT Spine1
			{
				OFFSET	0.0000	1.4392	-0.1032
				CHANNELS 3 Yrotation Xrotation Zrotation
				JOINT LeftShoulder
				{
					OFFSET	0.2274	1.0382	0.4032
					CHANNELS 3 Yrotation Xrotation Zrotation
					JOINT LeftArm
					{
						OFFSET	1.4730	-0.2267	-0.0231
						CHANNELS 3 Yrotation Xrotation Zrotation
						JOINT LeftForeArm
						{
							OFFSET	1.6131	-1.8059	0.0081
							CHANNELS 3 Yrotation Xrotation Zrotation
							JOINT LeftHand
							{
								OFFSET	1.2197	-1.2423	1.6317
								CHANNELS 3 Yrotation Xrotation Zrotation
								JOINT LThumb
								{
									OFFSET	0.0109	-0.0753	0.4387
									CHANNELS 3 Yrotation Xrotation Zrotation
									End Site
									{
										OFFSET -0.2090 -0.0868 0.2097
									}
								}
								JOINT LeftFingerBase
								{
									OFFSET	0.1071	-0.1567	0.2607
									CHANNELS 3 Yrotation Xrotation Zrotation
									JOINT LeftHandFinger1
									{
										OFFSET	0.1706	-0.2492	0.6830
										CHANNELS 3 Yrotation Xrotation Zrotation
										End Site
										{
											OFFSET 0.0335 -0.1507 0.2071
										}
									}
								}
							}
						}
					}
				}
				JOINT Neck
				{
					OFFSET	0.0000	1.7498	0.2381
					CHANNELS 3 Yrotation Xrotation Zrotation
					JOINT Neck1
					{
						OFFSET	0.0000	0.5043	0.1959
						CHANNELS 3 Yrotation Xrotation Zrotation
						JOINT Head
						{
							OFFSET	0.0000	0.5044	0.1959
							CHANNELS 3 Yrotation Xrotation Zrotation
							End Site
							{
								OFFSET 0.0000 1.4798 -0.0693
							}
						}
					}
				}
				JOINT RightShoulder
				{
					OFFSET	-0.2274	1.0382	0.4032
					CHANNELS 3 Yrotation Xrotation Zrotation
					JOINT RightArm
					{
						OFFSET	-1.4730	-0.2267	-0.0231
						CHANNELS 3 Yrotation Xrotation Zrotation
						JOINT RightForeArm
						{
							OFFSET	-1.6131	-1.8059	0.0081
							CHANNELS 3 Yrotation Xrotation Zrotation
							JOINT RightHand
							{
								OFFSET	-1.2197	-1.2423	1.6317
								CHANNELS 3 Yrotation Xrotation Zrotation
								JOINT RThumb
								{
									OFFSET	-0.0109	-0.0753	0.4387
									CHANNELS 3 Yrotation Xrotation Zrotation
									End Site
									{
										OFFSET 0.2090 -0.0868 0.2097
									}
								}
								JOINT RightFingerBase
								{
									OFFSET	-0.1071	-0.1567	0.2607
									CHANNELS 3 Yrotation Xrotation Zrotation
									JOINT RightHandFinger1
									{
										OFFSET	-0.1706	-0.2492	0.6830
										CHANNELS 3 Yrotation Xrotation Zrotation
										End Site
										{
											OFFSET -0.0335 -0.1507 0.2071
										}
									}
								}
							}
						}
					}
				}
			}
		}
	}
	JOINT RHipJoint
	{
		OFFSET	0.0000	0.0000	0.0000
		CHANNELS 3 Yrotation Xrotation Zrotation
		JOINT RightUpLeg
		{
			OFFSET	-1.0138	-0.0809	-0.0827
			CHANNELS 3 Yrotation Xrotation Zrotation
			JOINT RightLeg
			{
				OFFSET	-0.4110	-3.9095	0.3245
				CHANNELS 3 Yrotation Xrotation Zrotation
				JOINT RightFoot
				{
					OFFSET	-0.3810	-4.0555	-0.1470
					CHANNELS 3 Yrotation Xrotation Zrotation
					JOINT RightToeBase
					{
						OFFSET	-0.1396	-0.4462	1.3079
						CHANNELS 3 Yrotation Xrotation Zrotation
						End Site
						{
							OFFSET -0.0161 -0.0248 0.1809
						}
					}
				}
			}
		}
	}
}
MOTION
Frames: 11
Frame Time: 0.0333333
0.0768 8.5291 0.0807 1.5785 -0.8929 -5.0702 0.0000 -0.0000 0.0000 12.3163 -16.1627 5.5276 12.3774 21.3577 6.6085 3.1759 -5.5911 -3.6941 0.0000 -0.4463 0.0000 0.0000 -0.0000 0.0000 -0.0797 0.8622 4.9652 -0.0975 1.7278 9.5551 -13.7900 3.4793 3.5216 2.8087 4.7399 -44.6354 19.2580 21.3683 1.4996 19.5328 3.3685 -22.9489 15.5266 -8.4051 29.7873 4.3580 18.3322 -2.9518 -7.8437 -1.3376 -4.0519 -0.3047 1.0453 -2.1696 -0.4273 1.0323 -2.1649 0.9915 0.5156 -5.9783 3.3347 4.5005 -3.6861 0.4015 -1.1232 28.5263 -16.8310 19.0779 -0.7043 -14.9905 13.0964 10.1197 -15.5266 -8.4051 -29.7874 -4.3580 18.3322 2.9518 7.8438 -1.3376 4.0519 0.0000 -0.0000 0.0000 -3.9601 2.8724 15.9257 -6.3166 9.4175 2.2746 2.3252 -11.8441 -13.3852 -0.0000 -0.5564 -0.0000 
0.1176 8.5486 0.0485 2.6069 0.2127 -4.3905 0.0000 -0.0000 0.0000 12.1447 -18.2910 4.7960 11.1274 22.9559 5.4286 3.1352 -3.8025 -3.6796 0.0019 -1.7957 -0.1330 0.0000 -0.0000 0.0000 0.0029 1.1528 4.7270 0.0739 2.3027 9.0826 -14.5724 3.3899 4.0789 6.3110 5.1395 -43.6691 15.3410 17.6249 0.2628 19.4446 -0.4765 -18.8387 15.5037 -8.4396 29.7292 6.0272 16.6017 -1.4419 -6.3270 -2.9255 -2.8052 -0.4973 0.5996 -2.2584 -0.6167 0.5847 -2.2511 0.2316 -1.5929 -6.0344 3.8379 4.4668 -4.1774 2.0741 -0.3631 28.2361 -15.2832 17.5678 -0.2464 -17.5122 12.5123 6.0560 -15.5458 -8.3733 -29.8066 -6.9337 15.8406 0.6792 5.5938 -3.7175 2.2075 0.0000 -0.0000 0.0000 -3.9258 1.4748 15.4236 -6.4612 9.3360 1.6935 1.2106 -11.9248 -12.7018 -0.0000 -1.0568 0.0000 
0.1692 8.5663 0.0065 3.5370 1.8841 -3.8631 0.0000 -0.0000 0.0000 11.5918 -21.4647 4.3018 8.8441 25.8761 4.0354 3.1489 -2.6846 -5.2428 0.0020 -1.1267 -0.1614 0.0000 -0.0000 0.0000 0.0574 1.4285 4.4031 0.1798 2.8507 8.4285 -14.8864 3.4083 5.0945 10.9003 8.5556 -41.1755 8.0924 10.1165 -1.3403 20.8682 -7.6890 -14.1971 15.5860 -8.3102 29.8832 8.8671 13.9298 0.9790 -3.9182 -5.5873 -0.8551 -0.6741 0.2954 -2.1629 -0.7891 0.2784 -2.1529 -0.2730 -4.2811 -6.1362 4.2857 4.4613 -4.8726 2.9490 2.1282 26.9389 -10.6735 12.8647 0.8768 -21.4440 11.4544 -1.7993 -15.5937 -8.2990 -29.9103 -10.2842 12.3657 -2.2131 2.6353 -7.0759 -0.1670 0.0000 -0.0000 0.0000 -3.0497 -0.8310 15.3715 -6.6111 9.4476 0.4541 -0.7772 -12.0855 -11.4369 -0.0000 -1.5371 0.0000 
0.2316 8.5452 -0.0515 4.0088 4.1654 -3.2877 0.0000 -0.0000 0.0000 10.3416 -25.8115 3.5260 7.4297 30.6356 3.5847 3.1401 -2.9399 -5.8961 -0.0000 -0.3093 0.0000 0.0000 -0.0000 0.0000 0.0160 1.6525 3.8875 0.0853 3.3022 7.4467 -13.9572 3.6571 6.7472 15.1123 16.7633 -37.3366 -1.9894 -1.0514 -1.9371 24.5161 -17.6071 -10.8961 15.5954 -8.3010 29.9539 11.5630 10.8933 3.3118 -1.4632 -8.4792 1.0897 -0.7849 -0.0139 -1.9251 -0.8911 -0.0323 -1.9133 -0.4168 -7.4892 -6.0777 4.6372 4.4684 -5.1275 2.3689 7.7340 23.6566 -2.4646 3.9299 1.9162 -26.1525 9.7208 -11.9276 -15.3929 -8.6196 -29.5928 -12.6211 8.7160 -4.4973 0.0602 -10.2132 -2.1790 0.0000 -0.0000 0.0000 -0.9040 -5.9583 15.4478 -6.9636 13.1744 -1.8341 -4.2069 -13.5324 -8.9140 -0.0000 -1.6820 -0.0000 
0.3078 8.4038 -0.1319 4.0248 7.2827 -2.1637 0.0000 -0.0000 0.0000 8.3871 -31.8547 2.0985 7.0548 37.5228 3.9753 3.1606 -4.0326 -5.8666 0.0000 -0.6795 -0.0000 0.0000 -0.0000 0.0000 -0.1453 1.8513 3.1125 -0.2176 3.7084 6.1853 -12.7362 3.8865 9.0945 19.9830 29.6052 -32.2689 -12.8797 -12.8718 -0.3866 28.8710 -27.4055 -9.7676 15.1261 -9.0495 29.1180 12.7268 7.4237 4.9507 0.5674 -11.0078 2.6606 -0.8278 -0.8090 -1.7420 -0.9179 -0.8283 -1.7289 -0.4296 -10.7130 -5.7932 4.7168 4.4884 -5.1163 -1.3893 16.8051 18.5057 8.3079 -8.0288 1.3071 -30.3884 7.1000 -22.1111 -14.6600 -9.8175 -28.2274 -12.8884 5.0529 -5.8297 -1.7278 -12.5078 -3.5411 0.0000 -0.0000 0.0000 0.5575 -15.9043 13.8946 -8.3724 24.7534 -3.4302 -5.9091 -17.3455 -7.7154 -0.0000 -1.8194 0.0000 
0.4067 8.0800 -0.2414 4.7552 11.2967 -0.5939 0.0000 -0.0000 0.0000 5.6736 -40.1473 0.3097 7.7901 45.9688 4.8756 3.1760 -7.6778 -5.0539 0.0996 -8.3686 -1.2928 0.0000 -0.0000 0.0000 -0.3664 2.0990 2.3118 -0.5950 4.2124 4.9015 -13.7209 3.7865 11.6778 28.8935 42.4698 -25.8509 -20.9096 -20.6884 2.0904 31.5678 -32.6209 -8.6892 13.9668 -11.0198 26.7889 11.8210 3.0553 6.0639 2.2492 -13.1947 3.9324 -0.8430 -2.5925 -1.8431 -0.9144 -2.6130 -1.8278 -0.7680 -13.2992 -5.3604 4.2770 4.5679 -6.1979 -9.2641 26.9208 13.3879 18.7242 -18.6619 -1.3150 -33.2459 3.6543 -30.4068 -13.4707 -11.9339 -25.7754 -11.3663 1.1438 -6.6274 -2.9620 -14.1465 -4.4627 0.0000 -0.0000 0.0000 -0.1092 -29.3531 10.8038 -11.6333 41.6621 -4.8662 -4.3440 -22.1460 -6.8626 0.0000 -4.7802 -0.0000 
0.5279 7.5820 -0.4029 6.8961 15.5678 1.2992 0.0000 -0.0000 0.0000 2.8070 -50.4341 -2.0496 13.1137 55.4831 9.3417 2.9335 -15.8438 -2.6380 0.0009 -5.3824 -0.1324 0.0000 -0.0000 0.0000 -0.5456 2.4383 1.7164 -0.9248 4.8948 3.7516 -16.9115 3.5625 13.8126 39.0414 48.6029 -21.3013 -22.4964 -22.1085 2.6973 33.9952 -30.0091 -7.0880 12.5757 -13.7183 23.7392 9.6022 -1.4194 6.9829 3.5428 -14.9328 4.8906 -0.8576 -5.4697 -2.2837 -0.9185 -5.4926 -2.2646 -1.6706 -15.2968 -4.9064 3.1658 4.6688 -8.9074 -17.6672 33.9997 11.5857 23.9690 -23.3867 -3.2922 -35.3328 -0.0375 -35.2464 -12.3081 -14.2904 -23.1239 -9.1639 -2.3723 -7.2541 -3.5773 -15.0394 -4.9294 0.0000 -0.0000 0.0000 -1.1965 -43.2203 7.4293 -18.1506 58.0010 -9.9109 -2.3657 -27.6275 -6.0039 0.0000 -6.6455 -0.0000 
0.6542 7.0060 -0.6031 9.6441 20.4955 3.9383 0.0000 -0.0000 0.0000 0.4831 -63.0338 -5.3480 25.6992 65.0174 21.2704 3.1779 -22.4590 -3.2240 -0.0000 -2.7232 0.0000 0.0000 -0.0000 0.0000 -0.6596 2.9314 1.2216 -1.1761 5.8792 2.6630 -18.7620 3.4025 14.6594 40.2103 44.2709 -23.3609 -17.3583 -17.3553 0.8676 39.1970 -20.2288 -7.3358 11.7601 -15.5254 21.8145 7.5259 -3.3787 7.0378 3.5857 -15.0292 4.9306 -0.8798 -9.1865 -2.8991 -0.9370 -9.2128 -2.8715 -2.9245 -17.6332 -4.6958 1.3799 4.6294 -10.9219 -20.3308 33.7445 14.5740 20.4620 -20.2800 -1.9258 -37.8526 -4.0964 -34.7649 -11.7024 -15.6685 -21.6294 -7.3993 -3.6307 -7.1154 -3.5826 -15.0331 -4.9302 0.0000 -0.0000 0.0000 0.3851 -57.7465 2.0356 -33.4730 72.1785 -24.5920 -1.9476 -31.9507 -4.3008 0.0000 -8.3856 -0.0000 
0.7646 6.4915 -0.7884 12.3181 25.8051 7.2691 0.0000 -0.0000 0.0000 0.3819 -75.6855 -10.6566 47.4104 70.4146 42.8809 3.1697 -25.6384 -3.3127 -0.0000 -2.9699 0.0000 0.0000 -0.0000 0.0000 -0.7218 3.7450 0.7315 -1.3396 7.5014 1.5925 -17.5130 3.2536 13.1463 31.2347 28.6005 -26.8491 -7.6569 -7.3219 -1.4071 44.3286 -8.8139 -8.4232 12.0119 -14.9480 22.4062 6.5284 -0.4220 5.0755 1.8755 -12.7017 3.6523 -0.9323 -13.1551 -3.3499 -0.9748 -13.1846 -3.3090 -3.9830 -20.9782 -5.0928 -0.6037 4.5341 -9.3322 -15.2312 22.6303 18.5294 10.1194 -9.9752 0.9876 -39.5201 -9.5493 -28.4199 -11.9569 -15.0748 -22.2594 -6.5454 -0.7964 -5.2658 -2.0520 -12.9339 -3.7847 0.0000 -0.0000 0.0000 9.0055 -70.9005 -9.4154 -74.1979 79.6185 -65.2870 -1.7440 -35.1594 -3.7015 -0.0000 -9.1597 -0.0000 
0.8416 6.1196 -0.9145 14.0402 29.0341 9.7397 0.0000 -0.0000 0.0000 9.3137 -84.4024 -22.6947 66.5495 73.0515 62.1695 4.1328 -26.6270 -3.4711 -0.0000 -3.4834 -0.0000 0.0000 -0.0000 0.0000 -0.7454 4.9136 0.3143 -1.4214 9.8333 0.7085 -15.7632 3.2977 9.2779 16.0877 5.1527 -25.6903 4.0550 5.6978 -1.8151 43.2653 -2.1259 -8.2275 13.2395 -12.3784 25.1928 6.0128 6.8291 1.6576 -1.8203 -8.0473 0.8097 -1.0257 -16.3147 -3.3190 -1.0302 -16.3461 -3.2675 -4.3077 -24.6239 -6.0586 -1.2441 4.5470 -5.2351 -4.2835 2.3742 19.7552 -2.5012 3.9706 1.9144 -35.3206 -15.3386 -19.7347 -13.0445 -12.7604 -24.7930 -6.0949 5.7974 -2.1057 1.2886 -8.6918 -1.2262 0.0000 -0.0000 0.0000 30.5367 -78.4266 -31.5762 -116.6071 78.8033 -108.3521 -2.9029 -36.9719 -2.8501 0.0000 -9.4722 -0.0000 
0.8840 5.9127 -0.9830 13.8182 29.5556 9.9079 0.0000 -0.0000 0.0000 34.8719 -87.7194 -48.9369 79.4686 74.2605 75.2994 5.3085 -27.3355 -3.1322 0.0000 -3.7838 0.0000 0.0000 -0.0000 0.0000 -0.7649 6.1097 0.0739 -1.4938 12.2222 0.1902 -16.2520 3.2299 5.2737 -2.6454 -18.4011 -18.6730 14.1802 16.4694 -0.0557 34.6512 -1.8391 -4.6686 14.6996 -9.7491 28.2651 5.1650 14.3488 -1.3653 -5.6713 -3.6330 -2.2705 -1.0997 -17.7931 -2.8651 -1.0619 -17.8246 -2.8105 -3.8250 -27.0008 -6.9151 1.0332 4.1147 -3.5285 7.9101 -21.1676 18.4078 -13.4635 15.7461 0.2410 -21.9276 -18.6129 -14.8686 -14.4437 -10.1836 -27.7680 -5.4880 12.9587 0.7520 4.8872 -4.4958 1.6348 0.0000 -0.0000 0.0000 49.6832 -80.1099 -48.8316 -132.1311 76.6912 -124.5943 -5.3611 -37.7053 -2.0755 0.0000 -9.4807 0.0000 
